Video

Codec ID/Hint : XviD
Duration : 1h 41mn
Bit rate : 849 Kbps
Width : 624 pixels
Height : 336 pixels
Display aspect ratio : 1.857
Frame rate : 23.976 fps
Color space : YUV
Chroma subsampling : 4:2:0
Bit depth : 8 bits
Scan type : Progressive
Bits/(Pixel*Frame) : 0.169
Stream size : 617 MiB (88%)
Writing library : XviD 57


Codec ID/Hint : MP3
Duration : 1h 41mn
Bit rate mode : Variable
Bit rate : 104 Kbps
Nominal bit rate : 112 Kbps
Channel(s) : 2 channels
Sampling rate : 48.0 KHz
Stream size : 75.2 MiB (11%)
Alignment : Aligned on interleaves
Interleave, duration : 24 ms (0.58 video frame)
Interleave, preload duration : 177 ms
Writing library : LAME3.97
Encoding settings : -m j -V 4 -q 2 -lowpass 16 --abr 112


IMDB 
http://www.imdb.com/title/tt0473364/

Shout out to noir and all my freinds @ 1337x.org and extratorrent
 
http://leetleech.org/images/31138643425474009098.jpg